<svg xmlns="http://www.w3.org/2000/svg" version="1.1" xmlns:xlink="http://www.w3.org/1999/xlink" xmlns:svgjs="http://svgjs.dev/svgjs" width="700" height="400" preserveAspectRatio="none" viewBox="0 0 700 400"><g mask="url(&quot;#SvgjsMask1059&quot;)" fill="none"><path d="M363 249L178 64" stroke-width="6" stroke="url(&quot;#SvgjsLinearGradient1060&quot;)" stroke-linecap="round" class="BottomRight"></path><path d="M41 190L218 367" stroke-width="8" stroke="url(&quot;#SvgjsLinearGradient1060&quot;)" stroke-linecap="round" class="BottomRight"></path><path d="M518 296L400 178" stroke-width="10" stroke="url(&quot;#SvgjsLinearGradient1060&quot;)" stroke-linecap="round" class="BottomRight"></path><path d="M81 396L328 643" stroke-width="10" stroke="url(&quot;#SvgjsLinearGradient1061&quot;)" stroke-linecap="round" class="TopLeft"></path><path d="M195 236L-82 -41" stroke-width="6" stroke="url(&quot;#SvgjsLinearGradient1060&quot;)" stroke-linecap="round" class="BottomRight"></path><path d="M659 109L941 391" stroke-width="10" stroke="url(&quot;#SvgjsLinearGradient1060&quot;)" stroke-linecap="round" class="BottomRight"></path><path d="M469 202L756 489" stroke-width="8" stroke="url(&quot;#SvgjsLinearGradient1061&quot;)" stroke-linecap="round" class="TopLeft"></path><path d="M497 298L305 106" stroke-width="10" stroke="url(&quot;#SvgjsLinearGradient1061&quot;)" stroke-linecap="round" class="TopLeft"></path><path d="M521 389L406 274" stroke-width="8" stroke="url(&quot;#SvgjsLinearGradient1061&quot;)" stroke-linecap="round" class="TopLeft"></path><path d="M102 85L-4 -21" stroke-width="8" stroke="url(&quot;#SvgjsLinearGradient1061&quot;)" stroke-linecap="round" class="TopLeft"></path><path d="M689 225L987 523" stroke-width="10" stroke="url(&quot;#SvgjsLinearGradient1060&quot;)" stroke-linecap="round" class="BottomRight"></path><path d="M280 116L525 361" stroke-width="10" stroke="url(&quot;#SvgjsLinearGradient1061&quot;)" stroke-linecap="round" class="TopLeft"></path><path d="M448 159L654 365" stroke-width="6" stroke="url(&quot;#SvgjsLinearGradient1061&quot;)" stroke-linecap="round" class="TopLeft"></path><path d="M8 164L-258 -102" stroke-width="10" stroke="url(&quot;#SvgjsLinearGradient1061&quot;)" stroke-linecap="round" class="TopLeft"></path><path d="M83 281L207 405" stroke-width="10" stroke="url(&quot;#SvgjsLinearGradient1060&quot;)" stroke-linecap="round" class="BottomRight"></path><path d="M191 276L363 448" stroke-width="6" stroke="url(&quot;#SvgjsLinearGradient1061&quot;)" stroke-linecap="round" class="TopLeft"></path><path d="M615 214L345 -56" stroke-width="6" stroke="url(&quot;#SvgjsLinearGradient1060&quot;)" stroke-linecap="round" class="BottomRight"></path><path d="M466 206L168 -92" stroke-width="10" stroke="url(&quot;#SvgjsLinearGradient1061&quot;)" stroke-linecap="round" class="TopLeft"></path><path d="M445 183L238 -24" stroke-width="8" stroke="url(&quot;#SvgjsLinearGradient1060&quot;)" stroke-linecap="round" class="BottomRight"></path><path d="M237 339L536 638" stroke-width="10" stroke="url(&quot;#SvgjsLinearGradient1060&quot;)" stroke-linecap="round" class="BottomRight"></path><path d="M205 65L-7 -147" stroke-width="10" stroke="url(&quot;#SvgjsLinearGradient1061&quot;)" stroke-linecap="round" class="TopLeft"></path></g><defs><mask id="SvgjsMask1059"><rect width="700" height="400" fill="#ffffff"></rect></mask><linearGradient x1="0%" y1="0%" x2="100%" y2="100%" id="SvgjsLinearGradient1060"><stop stop-color="rgba(18, 203, 196, 0)" offset="0"></stop><stop stop-color="rgba(18, 203, 196, 1)" offset="1"></stop></linearGradient><linearGradient x1="100%" y1="100%" x2="0%" y2="0%" id="SvgjsLinearGradient1061"><stop stop-color="rgba(18, 203, 196, 0)" offset="0"></stop><stop stop-color="rgba(18, 203, 196, 1)" offset="1"></stop></linearGradient></defs></svg>