<svg xmlns="http://www.w3.org/2000/svg" version="1.1" xmlns:xlink="http://www.w3.org/1999/xlink" xmlns:svgjs="http://svgjs.dev/svgjs" width="1440" height="250" preserveAspectRatio="none" viewBox="0 0 1440 250"><g mask="url(&quot;#SvgjsMask1110&quot;)" fill="none"><rect width="1440" height="250" x="0" y="0" fill="rgba(18, 203, 196, 0.1)"></rect><path d="M6 250L256 0L557.5 0L307.5 250z" fill="url(&quot;#SvgjsLinearGradient1111&quot;)"></path><path d="M269.6 250L519.6 0L725.1 0L475.1 250z" fill="url(&quot;#SvgjsLinearGradient1111&quot;)"></path><path d="M485.20000000000005 250L735.2 0L1081.7 0L831.7 250z" fill="url(&quot;#SvgjsLinearGradient1111&quot;)"></path><path d="M725.8000000000001 250L975.8000000000001 0L1200.8000000000002 0L950.8000000000001 250z" fill="url(&quot;#SvgjsLinearGradient1111&quot;)"></path><path d="M1429 250L1179 0L937.5 0L1187.5 250z" fill="url(&quot;#SvgjsLinearGradient1112&quot;)"></path><path d="M1190.4 250L940.4000000000001 0L623.9000000000001 0L873.9000000000001 250z" fill="url(&quot;#SvgjsLinearGradient1112&quot;)"></path><path d="M955.8 250L705.8 0L485.29999999999995 0L735.3 250z" fill="url(&quot;#SvgjsLinearGradient1112&quot;)"></path><path d="M716.1999999999999 250L466.19999999999993 0L317.69999999999993 0L567.6999999999999 250z" fill="url(&quot;#SvgjsLinearGradient1112&quot;)"></path><path d="M1273.0931033440609 250L1440 83.09310334406086L1440 250z" fill="url(&quot;#SvgjsLinearGradient1111&quot;)"></path><path d="M0 250L166.90689665593914 250L 0 83.09310334406086z" fill="url(&quot;#SvgjsLinearGradient1112&quot;)"></path></g><defs><mask id="SvgjsMask1110"><rect width="1440" height="250" fill="#ffffff"></rect></mask><linearGradient x1="0%" y1="100%" x2="100%" y2="0%" id="SvgjsLinearGradient1111"><stop stop-color="rgba(18, 203, 196, 0.5)" offset="0"></stop><stop stop-opacity="0" stop-color="rgba(18, 203, 196, 0.5)" offset="0.66"></stop></linearGradient><linearGradient x1="100%" y1="100%" x2="0%" y2="0%" id="SvgjsLinearGradient1112"><stop stop-color="rgba(18, 203, 196, 0.5)" offset="0"></stop><stop stop-opacity="0" stop-color="rgba(18, 203, 196, 0.5)" offset="0.66"></stop></linearGradient></defs></svg>