<svg xmlns="http://www.w3.org/2000/svg" version="1.1" xmlns:xlink="http://www.w3.org/1999/xlink" xmlns:svgjs="http://svgjs.dev/svgjs" width="1440" height="560" preserveAspectRatio="none" viewBox="0 0 1440 560"><g mask="url(&quot;#SvgjsMask1017&quot;)" fill="none"><rect width="1440" height="560" x="0" y="0" fill="rgba(230, 247, 252, 1)"></rect><path d="M615.13 306.74L615.13 310.47L650.25 310.47L650.25 306.74zM643.65 308.61 a6.6 6.6 0 1 0 13.2 0 a6.6 6.6 0 1 0 -13.2 0zM610.42 334.12L608.99 337.56L629.9 346.22L631.33 342.78zM624.02 344.5 a6.6 6.6 0 1 0 13.2 0 a6.6 6.6 0 1 0 -13.2 0zM595.6 357.61L592.96 360.25L613.09 380.38L615.73 377.75zM607.81 379.06 a6.6 6.6 0 1 0 13.2 0 a6.6 6.6 0 1 0 -13.2 0zM572.91 373.65L569.47 375.07L580.75 402.31L584.19 400.88zM575.87 401.6 a6.6 6.6 0 1 0 13.2 0 a6.6 6.6 0 1 0 -13.2 0zM545.82 379.78L542.09 379.78L542.09 406.4L545.82 406.4zM537.36 406.4 a6.6 6.6 0 1 0 13.2 0 a6.6 6.6 0 1 0 -13.2 0zM518.44 375.07L515 373.65L507.35 392.11L510.79 393.54zM502.47 392.83 a6.6 6.6 0 1 0 13.2 0 a6.6 6.6 0 1 0 -13.2 0zM494.95 360.25L492.31 357.61L480.41 369.52L483.04 372.16zM475.12 370.84 a6.6 6.6 0 1 0 13.2 0 a6.6 6.6 0 1 0 -13.2 0zM478.92 337.56L477.49 334.12L456.59 342.78L458.02 346.22zM450.71 344.5 a6.6 6.6 0 1 0 13.2 0 a6.6 6.6 0 1 0 -13.2 0zM472.79 310.47L472.79 306.74L447.14 306.74L447.14 310.47zM440.54 308.61 a6.6 6.6 0 1 0 13.2 0 a6.6 6.6 0 1 0 -13.2 0zM477.49 283.09L478.92 279.65L447.84 266.78L446.41 270.22zM440.53 268.5 a6.6 6.6 0 1 0 13.2 0 a6.6 6.6 0 1 0 -13.2 0zM492.31 259.6L494.95 256.97L470.63 232.64L467.99 235.28zM462.71 233.96 a6.6 6.6 0 1 0 13.2 0 a6.6 6.6 0 1 0 -13.2 0zM515 243.57L518.44 242.14L511.63 225.69L508.18 227.11zM503.31 226.4 a6.6 6.6 0 1 0 13.2 0 a6.6 6.6 0 1 0 -13.2 0zM542.09 237.44L545.82 237.44L545.82 216.27L542.09 216.27zM537.36 216.27 a6.6 6.6 0 1 0 13.2 0 a6.6 6.6 0 1 0 -13.2 0zM569.47 242.14L572.91 243.57L578.6 229.85L575.15 228.42zM570.27 229.14 a6.6 6.6 0 1 0 13.2 0 a6.6 6.6 0 1 0 -13.2 0zM592.96 256.97L595.6 259.6L616.17 239.03L613.53 236.4zM608.25 237.71 a6.6 6.6 0 1 0 13.2 0 a6.6 6.6 0 1 0 -13.2 0zM608.99 279.65L610.42 283.09L636.65 272.23L635.22 268.79zM629.34 270.51 a6.6 6.6 0 1 0 13.2 0 a6.6 6.6 0 1 0 -13.2 0zM472.77 308.61 a71.19 71.19 0 1 0 142.38 0 a71.19 71.19 0 1 0 -142.38 0z" fill="rgba(18, 203, 196, 1)"></path><path d="M534.97 237.98 A70.1936 70.1936 0 0 1 609.67 336M609.67 336 A142.3872 142.3872 0 0 0 534.97 237.98" fill="#0ea29d" fill-rule="nonzero"></path><path d="M548.39 245.75 a7.12 7.12 0 1 0 14.24 0 a7.12 7.12 0 1 0 -14.24 0zM598.83 278.72 a4.27 4.27 0 1 0 8.54 0 a4.27 4.27 0 1 0 -8.54 0zM597.48 316.36 a8.54 8.54 0 1 0 17.08 0 a8.54 8.54 0 1 0 -17.08 0zM507.34 249.71 a3.56 3.56 0 1 0 7.12 0 a3.56 3.56 0 1 0 -7.12 0zM566.06 343.48 a14.24 14.24 0 1 0 28.48 0 a14.24 14.24 0 1 0 -28.48 0zM503.88 318.26 a14.24 14.24 0 1 0 28.48 0 a14.24 14.24 0 1 0 -28.48 0zM566.5 305.06 a9.26 9.26 0 1 0 18.52 0 a9.26 9.26 0 1 0 -18.52 0zM483.83 274.52 a9.26 9.26 0 1 0 18.52 0 a9.26 9.26 0 1 0 -18.52 0zM477.44 332.79 a4.98 4.98 0 1 0 9.96 0 a4.98 4.98 0 1 0 -9.96 0zM540.3 338.94 a4.98 4.98 0 1 0 9.96 0 a4.98 4.98 0 1 0 -9.96 0z" fill="#0ea29d" fill-rule="nonzero"></path><path d="M1006.1 486.47L1006.1 488.79L1026.64 488.79L1026.64 486.47zM1022.51 487.63 a4.13 4.13 0 1 0 8.26 0 a4.13 4.13 0 1 0 -8.26 0zM1003.16 503.58L1002.27 505.73L1016.77 511.74L1017.66 509.58zM1013.09 510.66 a4.13 4.13 0 1 0 8.26 0 a4.13 4.13 0 1 0 -8.26 0zM993.9 518.26L992.25 519.91L996.72 524.38L998.36 522.73zM993.41 523.55 a4.13 4.13 0 1 0 8.26 0 a4.13 4.13 0 1 0 -8.26 0zM979.72 528.28L977.56 529.17L982.63 541.39L984.78 540.5zM979.57 540.95 a4.13 4.13 0 1 0 8.26 0 a4.13 4.13 0 1 0 -8.26 0zM962.78 532.11L960.45 532.11L960.45 541.57L962.78 541.57zM957.49 541.57 a4.13 4.13 0 1 0 8.26 0 a4.13 4.13 0 1 0 -8.26 0zM945.67 529.17L943.52 528.28L941.06 534.22L943.21 535.11zM938.01 534.67 a4.13 4.13 0 1 0 8.26 0 a4.13 4.13 0 1 0 -8.26 0zM930.99 519.91L929.34 518.26L922.72 524.88L924.37 526.52zM919.42 525.7 a4.13 4.13 0 1 0 8.26 0 a4.13 4.13 0 1 0 -8.26 0zM920.97 505.73L920.08 503.58L910.29 507.63L911.19 509.78zM906.61 508.7 a4.13 4.13 0 1 0 8.26 0 a4.13 4.13 0 1 0 -8.26 0zM917.14 488.79L917.14 486.47L895.28 486.47L895.28 488.79zM891.15 487.63 a4.13 4.13 0 1 0 8.26 0 a4.13 4.13 0 1 0 -8.26 0zM920.08 471.68L920.97 469.53L908.16 464.23L907.27 466.38zM903.59 465.3 a4.13 4.13 0 1 0 8.26 0 a4.13 4.13 0 1 0 -8.26 0zM929.34 457L930.99 455.35L921.13 445.49L919.48 447.14zM916.17 446.31 a4.13 4.13 0 1 0 8.26 0 a4.13 4.13 0 1 0 -8.26 0zM943.52 446.98L945.67 446.09L940.86 434.48L938.71 435.37zM935.66 434.92 a4.13 4.13 0 1 0 8.26 0 a4.13 4.13 0 1 0 -8.26 0zM960.45 443.15L962.78 443.15L962.78 433.09L960.45 433.09zM957.49 433.09 a4.13 4.13 0 1 0 8.26 0 a4.13 4.13 0 1 0 -8.26 0zM977.56 446.09L979.72 446.98L985.89 432.09L983.73 431.2zM980.68 431.64 a4.13 4.13 0 1 0 8.26 0 a4.13 4.13 0 1 0 -8.26 0zM992.25 455.35L993.9 457L1000.15 450.74L998.51 449.1zM995.2 449.92 a4.13 4.13 0 1 0 8.26 0 a4.13 4.13 0 1 0 -8.26 0zM1002.27 469.53L1003.16 471.68L1008.87 469.32L1007.98 467.17zM1004.29 468.24 a4.13 4.13 0 1 0 8.26 0 a4.13 4.13 0 1 0 -8.26 0zM917.12 487.63 a44.5 44.5 0 1 0 89 0 a44.5 44.5 0 1 0 -89 0z" fill="rgba(18, 203, 196, 1)"></path><path d="M919.93 503.18 A43.496 43.496 0 0 1 968.9 443.73M968.9 443.73 A88.992 88.992 0 0 0 919.93 503.18" fill="#0ea29d" fill-rule="nonzero"></path><path d="M922.86 491.87 a8.9 8.9 0 1 0 17.8 0 a8.9 8.9 0 1 0 -17.8 0zM939.22 470.43 a8.9 8.9 0 1 0 17.8 0 a8.9 8.9 0 1 0 -17.8 0zM974.5 492.35 a8.9 8.9 0 1 0 17.8 0 a8.9 8.9 0 1 0 -17.8 0zM993.07 474.62 a4.45 4.45 0 1 0 8.9 0 a4.45 4.45 0 1 0 -8.9 0zM921.45 470.17 a3.56 3.56 0 1 0 7.12 0 a3.56 3.56 0 1 0 -7.12 0zM959.27 510.94 a7.12 7.12 0 1 0 14.24 0 a7.12 7.12 0 1 0 -14.24 0zM973.33 470.05 a4.89 4.89 0 1 0 9.78 0 a4.89 4.89 0 1 0 -9.78 0zM986.88 518.45 a2.67 2.67 0 1 0 5.34 0 a2.67 2.67 0 1 0 -5.34 0zM966 455.44 a3.11 3.11 0 1 0 6.22 0 a3.11 3.11 0 1 0 -6.22 0zM954.5 528.39 a3.11 3.11 0 1 0 6.22 0 a3.11 3.11 0 1 0 -6.22 0z" fill="#0ea29d" fill-rule="nonzero"></path><path d="M277.59 213.35L277.59 217.08L292.98 217.08L292.98 213.35zM286.38 215.21 a6.6 6.6 0 1 0 13.2 0 a6.6 6.6 0 1 0 -13.2 0zM272.88 240.73L271.45 244.17L295.85 254.28L297.28 250.83zM289.97 252.55 a6.6 6.6 0 1 0 13.2 0 a6.6 6.6 0 1 0 -13.2 0zM258.06 264.22L255.42 266.85L275.89 287.32L278.52 284.68zM270.6 286 a6.6 6.6 0 1 0 13.2 0 a6.6 6.6 0 1 0 -13.2 0zM235.37 280.25L231.93 281.68L237.1 294.16L240.54 292.73zM232.22 293.45 a6.6 6.6 0 1 0 13.2 0 a6.6 6.6 0 1 0 -13.2 0zM208.28 286.38L204.55 286.38L204.55 315.78L208.28 315.78zM199.82 315.78 a6.6 6.6 0 1 0 13.2 0 a6.6 6.6 0 1 0 -13.2 0zM180.9 281.68L177.46 280.25L168.24 302.5L171.69 303.92zM163.37 303.21 a6.6 6.6 0 1 0 13.2 0 a6.6 6.6 0 1 0 -13.2 0zM157.41 266.85L154.77 264.22L133.36 285.63L136 288.27zM128.08 286.95 a6.6 6.6 0 1 0 13.2 0 a6.6 6.6 0 1 0 -13.2 0zM141.38 244.17L139.95 240.73L122.3 248.04L123.72 251.48zM116.41 249.76 a6.6 6.6 0 1 0 13.2 0 a6.6 6.6 0 1 0 -13.2 0zM135.25 217.08L135.25 213.35L103.02 213.35L103.02 217.08zM96.42 215.21 a6.6 6.6 0 1 0 13.2 0 a6.6 6.6 0 1 0 -13.2 0zM139.95 189.7L141.38 186.26L125.11 179.52L123.68 182.96zM117.79 181.24 a6.6 6.6 0 1 0 13.2 0 a6.6 6.6 0 1 0 -13.2 0zM154.77 166.21L157.41 163.57L146.18 152.34L143.55 154.98zM138.26 153.66 a6.6 6.6 0 1 0 13.2 0 a6.6 6.6 0 1 0 -13.2 0zM177.46 150.17L180.9 148.75L173.42 130.69L169.98 132.11zM165.1 131.4 a6.6 6.6 0 1 0 13.2 0 a6.6 6.6 0 1 0 -13.2 0zM204.55 144.04L208.28 144.04L208.28 117.02L204.55 117.02zM199.82 117.02 a6.6 6.6 0 1 0 13.2 0 a6.6 6.6 0 1 0 -13.2 0zM231.93 148.75L235.37 150.17L240.36 138.14L236.91 136.72zM232.03 137.43 a6.6 6.6 0 1 0 13.2 0 a6.6 6.6 0 1 0 -13.2 0zM255.42 163.57L258.06 166.21L272.45 151.81L269.82 149.17zM264.54 150.49 a6.6 6.6 0 1 0 13.2 0 a6.6 6.6 0 1 0 -13.2 0zM271.45 186.26L272.88 189.7L304.84 176.46L303.41 173.02zM297.52 174.74 a6.6 6.6 0 1 0 13.2 0 a6.6 6.6 0 1 0 -13.2 0zM135.23 215.21 a71.19 71.19 0 1 0 142.38 0 a71.19 71.19 0 1 0 -142.38 0z" fill="rgba(18, 203, 196, 1)"></path><path d="M275.79 199.22 A70.1936 70.1936 0 0 1 185.72 283.33M185.72 283.33 A142.3872 142.3872 0 0 0 275.79 199.22" fill="#0ea29d" fill-rule="nonzero"></path><path d="M190.42 256.43 a14.24 14.24 0 1 0 28.48 0 a14.24 14.24 0 1 0 -28.48 0zM240.48 241.85 a14.24 14.24 0 1 0 28.48 0 a14.24 14.24 0 1 0 -28.48 0zM140.77 226.55 a14.24 14.24 0 1 0 28.48 0 a14.24 14.24 0 1 0 -28.48 0zM228.14 274.97 a4.98 4.98 0 1 0 9.96 0 a4.98 4.98 0 1 0 -9.96 0zM174.3 162.73 a14.24 14.24 0 1 0 28.48 0 a14.24 14.24 0 1 0 -28.48 0zM238.4 180.19 a13.53 13.53 0 1 0 27.06 0 a13.53 13.53 0 1 0 -27.06 0zM188.91 212.8 a14.24 14.24 0 1 0 28.48 0 a14.24 14.24 0 1 0 -28.48 0zM166.94 190.7 a4.27 4.27 0 1 0 8.54 0 a4.27 4.27 0 1 0 -8.54 0zM237.79 209.34 a2.85 2.85 0 1 0 5.7 0 a2.85 2.85 0 1 0 -5.7 0zM169.92 254.91 a2.85 2.85 0 1 0 5.7 0 a2.85 2.85 0 1 0 -5.7 0z" fill="#0ea29d" fill-rule="nonzero"></path><path d="M889.17 210.57L889.17 213.83L908.57 213.83L908.57 210.57zM902.79 212.2 a5.78 5.78 0 1 0 11.56 0 a5.78 5.78 0 1 0 -11.56 0zM885.05 234.52L883.8 237.54L912.16 249.28L913.4 246.27zM907 247.77 a5.78 5.78 0 1 0 11.56 0 a5.78 5.78 0 1 0 -11.56 0zM872.08 255.08L869.77 257.39L875.23 262.84L877.54 260.54zM870.61 261.69 a5.78 5.78 0 1 0 11.56 0 a5.78 5.78 0 1 0 -11.56 0zM852.23 269.11L849.22 270.36L857.1 289.39L860.11 288.14zM852.83 288.76 a5.78 5.78 0 1 0 11.56 0 a5.78 5.78 0 1 0 -11.56 0zM828.52 274.47L825.26 274.47L825.26 296.44L828.52 296.44zM821.11 296.44 a5.78 5.78 0 1 0 11.56 0 a5.78 5.78 0 1 0 -11.56 0zM804.57 270.36L801.56 269.11L795.05 284.82L798.06 286.07zM790.77 285.45 a5.78 5.78 0 1 0 11.56 0 a5.78 5.78 0 1 0 -11.56 0zM784.01 257.39L781.71 255.08L767.04 269.75L769.35 272.05zM762.41 270.9 a5.78 5.78 0 1 0 11.56 0 a5.78 5.78 0 1 0 -11.56 0zM769.98 237.54L768.74 234.52L746.47 243.75L747.72 246.76zM741.31 245.25 a5.78 5.78 0 1 0 11.56 0 a5.78 5.78 0 1 0 -11.56 0zM764.62 213.83L764.62 210.57L745.76 210.57L745.76 213.83zM739.98 212.2 a5.78 5.78 0 1 0 11.56 0 a5.78 5.78 0 1 0 -11.56 0zM768.74 189.87L769.98 186.86L760.26 182.83L759.01 185.85zM753.85 184.34 a5.78 5.78 0 1 0 11.56 0 a5.78 5.78 0 1 0 -11.56 0zM781.71 169.32L784.01 167.01L777.05 160.05L774.75 162.36zM770.12 161.21 a5.78 5.78 0 1 0 11.56 0 a5.78 5.78 0 1 0 -11.56 0zM801.56 155.29L804.57 154.04L793.37 127L790.35 128.25zM786.08 127.62 a5.78 5.78 0 1 0 11.56 0 a5.78 5.78 0 1 0 -11.56 0zM825.26 149.93L828.52 149.93L828.52 132.46L825.26 132.46zM821.11 132.46 a5.78 5.78 0 1 0 11.56 0 a5.78 5.78 0 1 0 -11.56 0zM849.22 154.04L852.23 155.29L859.96 136.63L856.95 135.38zM852.67 136 a5.78 5.78 0 1 0 11.56 0 a5.78 5.78 0 1 0 -11.56 0zM869.77 167.01L872.08 169.32L893.77 147.63L891.46 145.33zM886.83 146.48 a5.78 5.78 0 1 0 11.56 0 a5.78 5.78 0 1 0 -11.56 0zM883.8 186.86L885.05 189.87L894 186.17L892.75 183.15zM887.6 184.66 a5.78 5.78 0 1 0 11.56 0 a5.78 5.78 0 1 0 -11.56 0zM764.6 212.2 a62.29 62.29 0 1 0 124.58 0 a62.29 62.29 0 1 0 -124.58 0z" fill="rgba(18, 203, 196, 1)"></path><path d="M862.04 160.77 A61.294399999999996 61.294399999999996 0 0 1 853.98 268.3M853.98 268.3 A124.58879999999999 124.58879999999999 0 0 0 862.04 160.77" fill="#0ea29d" fill-rule="nonzero"></path><path d="M772.66 238.94 a11.84 11.84 0 1 0 23.68 0 a11.84 11.84 0 1 0 -23.68 0zM797.58 212.37 a11.84 11.84 0 1 0 23.68 0 a11.84 11.84 0 1 0 -23.68 0zM831.39 238.77 a12.46 12.46 0 1 0 24.92 0 a12.46 12.46 0 1 0 -24.92 0zM788.05 166.97 a5.61 5.61 0 1 0 11.22 0 a5.61 5.61 0 1 0 -11.22 0zM831.57 193.06 a12.46 12.46 0 1 0 24.92 0 a12.46 12.46 0 1 0 -24.92 0zM774.96 207.46 a4.98 4.98 0 1 0 9.96 0 a4.98 4.98 0 1 0 -9.96 0zM803.68 183.96 a2.49 2.49 0 1 0 4.98 0 a2.49 2.49 0 1 0 -4.98 0zM795.89 264.61 a2.49 2.49 0 1 0 4.98 0 a2.49 2.49 0 1 0 -4.98 0zM862.63 215.39 a12.46 12.46 0 1 0 24.92 0 a12.46 12.46 0 1 0 -24.92 0zM868.75 184.55 a5.61 5.61 0 1 0 11.22 0 a5.61 5.61 0 1 0 -11.22 0z" fill="#0ea29d" fill-rule="nonzero"></path><path d="M1203.38 109.54L1203.38 112.8L1222.8 112.8L1222.8 109.54zM1217.02 111.17 a5.78 5.78 0 1 0 11.56 0 a5.78 5.78 0 1 0 -11.56 0zM1199.27 133.49L1198.02 136.51L1214.04 143.14L1215.29 140.13zM1208.88 141.64 a5.78 5.78 0 1 0 11.56 0 a5.78 5.78 0 1 0 -11.56 0zM1186.3 154.05L1183.99 156.36L1195 167.37L1197.31 165.06zM1190.37 166.21 a5.78 5.78 0 1 0 11.56 0 a5.78 5.78 0 1 0 -11.56 0zM1166.45 168.08L1163.44 169.33L1172.41 190.98L1175.42 189.73zM1168.13 190.36 a5.78 5.78 0 1 0 11.56 0 a5.78 5.78 0 1 0 -11.56 0zM1142.74 173.44L1139.48 173.44L1139.48 187.95L1142.74 187.95zM1135.33 187.95 a5.78 5.78 0 1 0 11.56 0 a5.78 5.78 0 1 0 -11.56 0zM1118.79 169.33L1115.77 168.08L1111.84 177.57L1114.85 178.82zM1107.57 178.2 a5.78 5.78 0 1 0 11.56 0 a5.78 5.78 0 1 0 -11.56 0zM1098.23 156.36L1095.92 154.05L1088.75 161.23L1091.05 163.53zM1084.12 162.38 a5.78 5.78 0 1 0 11.56 0 a5.78 5.78 0 1 0 -11.56 0zM1084.2 136.51L1082.95 133.49L1073.33 137.48L1074.58 140.49zM1068.17 138.99 a5.78 5.78 0 1 0 11.56 0 a5.78 5.78 0 1 0 -11.56 0zM1078.84 112.8L1078.84 109.54L1065.86 109.54L1065.86 112.8zM1060.08 111.17 a5.78 5.78 0 1 0 11.56 0 a5.78 5.78 0 1 0 -11.56 0zM1082.95 88.84L1084.2 85.83L1065.58 78.12L1064.33 81.13zM1059.17 79.62 a5.78 5.78 0 1 0 11.56 0 a5.78 5.78 0 1 0 -11.56 0zM1095.92 68.29L1098.23 65.98L1092.6 60.35L1090.3 62.66zM1085.67 61.51 a5.78 5.78 0 1 0 11.56 0 a5.78 5.78 0 1 0 -11.56 0zM1115.77 54.26L1118.79 53.01L1109.76 31.23L1106.75 32.47zM1102.48 31.85 a5.78 5.78 0 1 0 11.56 0 a5.78 5.78 0 1 0 -11.56 0zM1139.48 48.9L1142.74 48.9L1142.74 25.44L1139.48 25.44zM1135.33 25.44 a5.78 5.78 0 1 0 11.56 0 a5.78 5.78 0 1 0 -11.56 0zM1163.44 53.01L1166.45 54.26L1170.8 43.75L1167.79 42.5zM1163.52 43.12 a5.78 5.78 0 1 0 11.56 0 a5.78 5.78 0 1 0 -11.56 0zM1183.99 65.98L1186.3 68.29L1208.06 46.52L1205.76 44.22zM1201.13 45.37 a5.78 5.78 0 1 0 11.56 0 a5.78 5.78 0 1 0 -11.56 0zM1198.02 85.83L1199.27 88.84L1209.79 84.49L1208.54 81.47zM1203.39 82.98 a5.78 5.78 0 1 0 11.56 0 a5.78 5.78 0 1 0 -11.56 0zM1078.82 111.17 a62.29 62.29 0 1 0 124.58 0 a62.29 62.29 0 1 0 -124.58 0z" fill="rgba(18, 203, 196, 1)"></path><path d="M1093.66 70.8 A61.294399999999996 61.294399999999996 0 0 1 1199.75 90.14M1199.75 90.14 A124.58879999999999 124.58879999999999 0 0 0 1093.66 70.8" fill="#0ea29d" fill-rule="nonzero"></path><path d="M1121.05 129.28 a12.46 12.46 0 1 0 24.92 0 a12.46 12.46 0 1 0 -24.92 0zM1117.08 76.28 a12.46 12.46 0 1 0 24.92 0 a12.46 12.46 0 1 0 -24.92 0zM1143.63 156.3 a6.85 6.85 0 1 0 13.7 0 a6.85 6.85 0 1 0 -13.7 0zM1171.78 105.56 a12.46 12.46 0 1 0 24.92 0 a12.46 12.46 0 1 0 -24.92 0zM1116.15 165.29 a4.36 4.36 0 1 0 8.72 0 a4.36 4.36 0 1 0 -8.72 0zM1081.15 95.99 a4.98 4.98 0 1 0 9.96 0 a4.98 4.98 0 1 0 -9.96 0zM1146.38 106.09 a2.49 2.49 0 1 0 4.98 0 a2.49 2.49 0 1 0 -4.98 0zM1096.08 123.94 a6.23 6.23 0 1 0 12.46 0 a6.23 6.23 0 1 0 -12.46 0zM1148.23 58.57 a3.11 3.11 0 1 0 6.22 0 a3.11 3.11 0 1 0 -6.22 0zM1157.45 77.67 a7.48 7.48 0 1 0 14.96 0 a7.48 7.48 0 1 0 -14.96 0z" fill="#0ea29d" fill-rule="nonzero"></path><path d="M1394.4 425.05L1394.4 428.77L1428.89 428.77L1428.89 425.05zM1422.29 426.91 a6.6 6.6 0 1 0 13.2 0 a6.6 6.6 0 1 0 -13.2 0zM1389.7 452.42L1388.27 455.87L1399.8 460.64L1401.23 457.2zM1393.92 458.92 a6.6 6.6 0 1 0 13.2 0 a6.6 6.6 0 1 0 -13.2 0zM1374.88 475.92L1372.24 478.55L1383.9 490.21L1386.54 487.58zM1378.62 488.89 a6.6 6.6 0 1 0 13.2 0 a6.6 6.6 0 1 0 -13.2 0zM1352.19 491.95L1348.75 493.38L1352.51 502.45L1355.95 501.02zM1347.63 501.73 a6.6 6.6 0 1 0 13.2 0 a6.6 6.6 0 1 0 -13.2 0zM1325.1 498.08L1321.37 498.08L1321.37 532.86L1325.1 532.86zM1316.63 532.86 a6.6 6.6 0 1 0 13.2 0 a6.6 6.6 0 1 0 -13.2 0zM1297.72 493.38L1294.28 491.95L1286.62 510.43L1290.07 511.85zM1281.75 511.14 a6.6 6.6 0 1 0 13.2 0 a6.6 6.6 0 1 0 -13.2 0zM1274.23 478.55L1271.59 475.92L1249.28 498.23L1251.91 500.87zM1243.99 499.55 a6.6 6.6 0 1 0 13.2 0 a6.6 6.6 0 1 0 -13.2 0zM1258.2 455.87L1256.77 452.42L1247.77 456.15L1249.2 459.59zM1241.88 457.87 a6.6 6.6 0 1 0 13.2 0 a6.6 6.6 0 1 0 -13.2 0zM1252.07 428.77L1252.07 425.05L1220.78 425.05L1220.78 428.77zM1214.18 426.91 a6.6 6.6 0 1 0 13.2 0 a6.6 6.6 0 1 0 -13.2 0zM1256.77 401.4L1258.2 397.95L1234.51 388.14L1233.08 391.58zM1227.19 389.86 a6.6 6.6 0 1 0 13.2 0 a6.6 6.6 0 1 0 -13.2 0zM1271.59 377.9L1274.23 375.27L1263.62 364.66L1260.99 367.3zM1255.7 365.98 a6.6 6.6 0 1 0 13.2 0 a6.6 6.6 0 1 0 -13.2 0zM1294.28 361.87L1297.72 360.45L1292.81 348.59L1289.37 350.02zM1284.49 349.31 a6.6 6.6 0 1 0 13.2 0 a6.6 6.6 0 1 0 -13.2 0zM1321.37 355.74L1325.1 355.74L1325.1 333.21L1321.37 333.21zM1316.63 333.21 a6.6 6.6 0 1 0 13.2 0 a6.6 6.6 0 1 0 -13.2 0zM1348.75 360.45L1352.19 361.87L1356.63 351.15L1353.19 349.73zM1348.31 350.44 a6.6 6.6 0 1 0 13.2 0 a6.6 6.6 0 1 0 -13.2 0zM1372.24 375.27L1374.88 377.9L1399.29 353.49L1396.66 350.85zM1391.38 352.17 a6.6 6.6 0 1 0 13.2 0 a6.6 6.6 0 1 0 -13.2 0zM1388.27 397.95L1389.7 401.4L1418.37 389.52L1416.94 386.08zM1411.05 387.8 a6.6 6.6 0 1 0 13.2 0 a6.6 6.6 0 1 0 -13.2 0zM1252.04 426.91 a71.19 71.19 0 1 0 142.38 0 a71.19 71.19 0 1 0 -142.38 0z" fill="rgba(18, 203, 196, 1)"></path><path d="M1391.66 407.26 A70.1936 70.1936 0 0 1 1306.18 496.03M1306.18 496.03 A142.3872 142.3872 0 0 0 1391.66 407.26" fill="#0ea29d" fill-rule="nonzero"></path><path d="M1347.44 398.21 a14.24 14.24 0 1 0 28.48 0 a14.24 14.24 0 1 0 -28.48 0zM1341.52 479.39 a10.68 10.68 0 1 0 21.36 0 a10.68 10.68 0 1 0 -21.36 0zM1293.29 488.64 a4.27 4.27 0 1 0 8.54 0 a4.27 4.27 0 1 0 -8.54 0zM1314.63 396.24 a9.26 9.26 0 1 0 18.52 0 a9.26 9.26 0 1 0 -18.52 0zM1331.68 450.99 a6.41 6.41 0 1 0 12.82 0 a6.41 6.41 0 1 0 -12.82 0zM1257.4 421.55 a14.24 14.24 0 1 0 28.48 0 a14.24 14.24 0 1 0 -28.48 0zM1277.15 390.9 a2.85 2.85 0 1 0 5.7 0 a2.85 2.85 0 1 0 -5.7 0zM1290.7 373.31 a8.54 8.54 0 1 0 17.08 0 a8.54 8.54 0 1 0 -17.08 0zM1357.6 442.42 a7.83 7.83 0 1 0 15.66 0 a7.83 7.83 0 1 0 -15.66 0zM1283.26 466.96 a4.98 4.98 0 1 0 9.96 0 a4.98 4.98 0 1 0 -9.96 0z" fill="#0ea29d" fill-rule="nonzero"></path><path d="M186.68 472.79L186.68 475.12L207.6 475.12L207.6 472.79zM203.47 473.95 a4.13 4.13 0 1 0 8.26 0 a4.13 4.13 0 1 0 -8.26 0zM183.74 489.9L182.85 492.05L190.83 495.36L191.72 493.2zM187.14 494.28 a4.13 4.13 0 1 0 8.26 0 a4.13 4.13 0 1 0 -8.26 0zM174.47 504.58L172.83 506.23L180.41 513.81L182.05 512.16zM177.1 512.98 a4.13 4.13 0 1 0 8.26 0 a4.13 4.13 0 1 0 -8.26 0zM160.3 514.6L158.14 515.49L163.07 527.39L165.22 526.5zM160.02 526.95 a4.13 4.13 0 1 0 8.26 0 a4.13 4.13 0 1 0 -8.26 0zM143.36 518.43L141.03 518.43L141.03 529.21L143.36 529.21zM138.07 529.21 a4.13 4.13 0 1 0 8.26 0 a4.13 4.13 0 1 0 -8.26 0zM126.25 515.49L124.1 514.6L121.59 520.65L123.74 521.54zM118.54 521.1 a4.13 4.13 0 1 0 8.26 0 a4.13 4.13 0 1 0 -8.26 0zM111.57 506.23L109.92 504.58L99.32 515.18L100.97 516.83zM96.01 516 a4.13 4.13 0 1 0 8.26 0 a4.13 4.13 0 1 0 -8.26 0zM101.55 492.05L100.66 489.9L83.31 497.08L84.2 499.24zM79.62 498.16 a4.13 4.13 0 1 0 8.26 0 a4.13 4.13 0 1 0 -8.26 0zM97.72 475.12L97.72 472.79L81.27 472.79L81.27 475.12zM77.14 473.95 a4.13 4.13 0 1 0 8.26 0 a4.13 4.13 0 1 0 -8.26 0zM100.66 458.01L101.55 455.85L81.48 447.54L80.59 449.69zM76.91 448.62 a4.13 4.13 0 1 0 8.26 0 a4.13 4.13 0 1 0 -8.26 0zM109.92 443.32L111.57 441.67L100.9 431L99.25 432.65zM95.94 431.83 a4.13 4.13 0 1 0 8.26 0 a4.13 4.13 0 1 0 -8.26 0zM124.1 433.3L126.25 432.41L118.78 414.37L116.63 415.26zM113.57 414.81 a4.13 4.13 0 1 0 8.26 0 a4.13 4.13 0 1 0 -8.26 0zM141.03 429.47L143.36 429.47L143.36 409.38L141.03 409.38zM138.07 409.38 a4.13 4.13 0 1 0 8.26 0 a4.13 4.13 0 1 0 -8.26 0zM158.14 432.41L160.3 433.3L168.59 413.28L166.44 412.39zM163.38 412.84 a4.13 4.13 0 1 0 8.26 0 a4.13 4.13 0 1 0 -8.26 0zM172.83 441.67L174.47 443.32L179.71 438.09L178.06 436.44zM174.75 437.27 a4.13 4.13 0 1 0 8.26 0 a4.13 4.13 0 1 0 -8.26 0zM182.85 455.85L183.74 458.01L200.14 451.21L199.24 449.06zM195.56 450.14 a4.13 4.13 0 1 0 8.26 0 a4.13 4.13 0 1 0 -8.26 0zM97.7 473.95 a44.5 44.5 0 1 0 89 0 a44.5 44.5 0 1 0 -89 0z" fill="rgba(18, 203, 196, 1)"></path><path d="M100.65 489.88 A43.496 43.496 0 0 1 149.09 429.99M149.09 429.99 A88.992 88.992 0 0 0 100.65 489.88" fill="#0ea29d" fill-rule="nonzero"></path><path d="M169.76 497.39 a4.45 4.45 0 1 0 8.9 0 a4.45 4.45 0 1 0 -8.9 0zM131.54 433.67 a3.11 3.11 0 1 0 6.22 0 a3.11 3.11 0 1 0 -6.22 0zM103.09 493.19 a4.45 4.45 0 1 0 8.9 0 a4.45 4.45 0 1 0 -8.9 0zM171.74 460.94 a6.23 6.23 0 1 0 12.46 0 a6.23 6.23 0 1 0 -12.46 0zM117.71 442.26 a3.56 3.56 0 1 0 7.12 0 a3.56 3.56 0 1 0 -7.12 0zM148.19 503.99 a6.67 6.67 0 1 0 13.34 0 a6.67 6.67 0 1 0 -13.34 0zM152.99 435.69 a3.56 3.56 0 1 0 7.12 0 a3.56 3.56 0 1 0 -7.12 0zM167.36 477.6 a3.11 3.11 0 1 0 6.22 0 a3.11 3.11 0 1 0 -6.22 0zM153.35 450.26 a1.78 1.78 0 1 0 3.56 0 a1.78 1.78 0 1 0 -3.56 0zM100.41 461.26 a8.9 8.9 0 1 0 17.8 0 a8.9 8.9 0 1 0 -17.8 0z" fill="#0ea29d" fill-rule="nonzero"></path><path d="M763.05 477.07L763.05 478.94L772.15 478.94L772.15 477.07zM768.85 478 a3.3 3.3 0 1 0 6.6 0 a3.3 3.3 0 1 0 -6.6 0zM760.7 490.76L759.98 492.48L774.79 498.62L775.51 496.9zM771.85 497.76 a3.3 3.3 0 1 0 6.6 0 a3.3 3.3 0 1 0 -6.6 0zM753.29 502.51L751.97 503.83L756.94 508.8L758.26 507.48zM754.3 508.14 a3.3 3.3 0 1 0 6.6 0 a3.3 3.3 0 1 0 -6.6 0zM741.94 510.52L740.22 511.24L745.16 523.15L746.88 522.44zM742.72 522.8 a3.3 3.3 0 1 0 6.6 0 a3.3 3.3 0 1 0 -6.6 0zM728.4 513.59L726.53 513.59L726.53 526.66L728.4 526.66zM724.16 526.66 a3.3 3.3 0 1 0 6.6 0 a3.3 3.3 0 1 0 -6.6 0zM714.71 511.24L712.99 510.52L706.54 526.09L708.26 526.8zM704.1 526.45 a3.3 3.3 0 1 0 6.6 0 a3.3 3.3 0 1 0 -6.6 0zM702.96 503.83L701.64 502.51L691.87 512.28L693.19 513.6zM689.23 512.94 a3.3 3.3 0 1 0 6.6 0 a3.3 3.3 0 1 0 -6.6 0zM694.94 492.48L694.23 490.76L683.37 495.26L684.08 496.98zM680.42 496.12 a3.3 3.3 0 1 0 6.6 0 a3.3 3.3 0 1 0 -6.6 0zM691.88 478.94L691.88 477.07L675.81 477.07L675.81 478.94zM672.51 478 a3.3 3.3 0 1 0 6.6 0 a3.3 3.3 0 1 0 -6.6 0zM694.23 465.25L694.94 463.53L684.64 459.26L683.93 460.98zM680.99 460.12 a3.3 3.3 0 1 0 6.6 0 a3.3 3.3 0 1 0 -6.6 0zM701.64 453.5L702.96 452.18L695.08 444.3L693.76 445.62zM691.12 444.96 a3.3 3.3 0 1 0 6.6 0 a3.3 3.3 0 1 0 -6.6 0zM712.99 445.49L714.71 444.77L709.95 433.28L708.22 433.99zM705.79 433.64 a3.3 3.3 0 1 0 6.6 0 a3.3 3.3 0 1 0 -6.6 0zM726.53 442.42L728.4 442.42L728.4 425.89L726.53 425.89zM724.16 425.89 a3.3 3.3 0 1 0 6.6 0 a3.3 3.3 0 1 0 -6.6 0zM740.22 444.77L741.94 445.49L746.06 435.54L744.34 434.83zM741.9 435.19 a3.3 3.3 0 1 0 6.6 0 a3.3 3.3 0 1 0 -6.6 0zM751.97 452.18L753.29 453.5L756.51 450.28L755.19 448.96zM752.55 449.62 a3.3 3.3 0 1 0 6.6 0 a3.3 3.3 0 1 0 -6.6 0zM759.98 463.53L760.7 465.25L770.61 461.14L769.9 459.42zM766.95 460.28 a3.3 3.3 0 1 0 6.6 0 a3.3 3.3 0 1 0 -6.6 0zM691.86 478 a35.6 35.6 0 1 0 71.2 0 a35.6 35.6 0 1 0 -71.2 0z" fill="rgba(18, 203, 196, 1)"></path><path d="M701.41 453.75 A34.5968 34.5968 0 0 1 761.48 467.5M761.48 467.5 A71.1936 71.1936 0 0 0 701.41 453.75" fill="#0ea29d" fill-rule="nonzero"></path><path d="M725.38 458.95 a7.12 7.12 0 1 0 14.24 0 a7.12 7.12 0 1 0 -14.24 0zM714.17 484.68 a7.12 7.12 0 1 0 14.24 0 a7.12 7.12 0 1 0 -14.24 0zM754.69 469.65 a3.56 3.56 0 1 0 7.12 0 a3.56 3.56 0 1 0 -7.12 0zM750.97 492.32 a4.27 4.27 0 1 0 8.54 0 a4.27 4.27 0 1 0 -8.54 0zM702.49 486.02 a2.14 2.14 0 1 0 4.28 0 a2.14 2.14 0 1 0 -4.28 0zM735.49 488.43 a3.92 3.92 0 1 0 7.84 0 a3.92 3.92 0 1 0 -7.84 0zM711.14 470.7 a1.78 1.78 0 1 0 3.56 0 a1.78 1.78 0 1 0 -3.56 0zM723.79 500.71 a2.49 2.49 0 1 0 4.98 0 a2.49 2.49 0 1 0 -4.98 0zM710.23 448.82 a2.85 2.85 0 1 0 5.7 0 a2.85 2.85 0 1 0 -5.7 0zM746.67 456.5 a3.2 3.2 0 1 0 6.4 0 a3.2 3.2 0 1 0 -6.4 0z" fill="#0ea29d" fill-rule="nonzero"></path></g><defs><mask id="SvgjsMask1017"><rect width="1440" height="560" fill="#ffffff"></rect></mask></defs></svg>